<?xml version="1.0" encoding="utf-8"?>
<!-- Generator: Adobe Illustrator 15.0.0, SVG Export Plug-In . SVG Version: 6.00 Build 0)  -->
<!DOCTYPE svg PUBLIC "-//W3C//DTD SVG 1.1//EN" "http://www.w3.org/Graphics/SVG/1.1/DTD/svg11.dtd">
<svg version="1.1" id="Layer_1" xmlns="http://www.w3.org/2000/svg" xmlns:xlink="http://www.w3.org/1999/xlink" x="0px" y="0px"
	 width="109px" height="109px" viewBox="0 0 109 109" enable-background="new 0 0 109 109" xml:space="preserve">
<g>
	<rect x="9.052" y="-3.833" fill="none" width="159.667" height="75.354"/>
	<path fill="#404040" d="M7.072,70.616l0.495-2.871c2.706-1.121,5.609-1.914,8.712-2.377L28.654,6.661
		c-1.453-0.33-2.822-0.708-4.108-1.138c-1.287-0.429-2.459-0.874-3.515-1.337l0.693-2.871h9.999c1.122,0,2.458-0.033,4.01-0.099
		c1.55-0.065,3.134-0.148,4.752-0.248c1.616-0.099,3.184-0.198,4.702-0.297c1.518-0.099,2.772-0.148,3.762-0.148
		c5.279,0,9.767,0.628,13.464,1.881c3.696,1.254,6.683,2.955,8.959,5.099c2.277,2.146,3.926,4.687,4.95,7.623
		c1.022,2.938,1.535,6.088,1.535,9.454c0,3.366-0.282,6.881-0.842,10.543c-0.562,3.663-1.502,7.227-2.821,10.692
		c-1.321,3.464-3.086,6.749-5.296,9.851c-2.212,3.104-4.984,5.826-8.316,8.168c-3.333,2.344-7.276,4.207-11.83,5.592
		c-4.554,1.387-9.801,2.08-15.741,2.08c-0.99,0-2.163-0.049-3.515-0.148c-1.354-0.1-2.789-0.197-4.306-0.297
		c-1.519-0.1-3.037-0.199-4.554-0.297c-1.519-0.1-2.905-0.148-4.158-0.148H7.072z M46.901,5.671c-1.722,0-3.476,0.034-5.264,0.099
		c-1.788,0.067-3.146,0.166-4.073,0.297L25.189,66.061c0.656,0.066,1.46,0.117,2.413,0.148c0.953,0.035,1.906,0.066,2.858,0.1
		c0.953,0.033,1.807,0.066,2.562,0.1s1.331,0.016,1.725-0.051c6.175,0.066,11.348-1.154,15.52-3.662
		c4.17-2.508,7.521-5.793,10.05-9.851c2.529-4.059,4.319-8.613,5.371-13.662c1.05-5.049,1.576-10.113,1.576-15.196
		c0-2.574-0.298-4.982-0.894-7.227c-0.597-2.243-1.657-4.173-3.179-5.792c-1.524-1.617-3.593-2.903-6.209-3.861
		C54.366,6.151,51.006,5.671,46.901,5.671z"/>
</g>
<g>
	<rect x="22.667" y="24.479" fill="none" width="159.668" height="82.688"/>
	<path fill="#404040" d="M20.487,106.448l0.545-3.161c2.979-1.234,6.175-2.106,9.592-2.616l13.625-64.637
		c-1.599-0.363-3.106-0.78-4.523-1.253c-1.417-0.472-2.708-0.962-3.87-1.472l0.763-3.161h11.009c1.235,0,2.707-0.036,4.415-0.109
		c1.707-0.071,3.451-0.163,5.232-0.272c1.78-0.109,3.505-0.218,5.178-0.327c1.67-0.109,3.052-0.164,4.142-0.164
		c5.813,0,10.754,0.691,14.824,2.071c4.069,1.381,7.357,3.253,9.865,5.614c2.507,2.362,4.322,5.16,5.45,8.393
		c1.126,3.234,1.689,6.704,1.689,10.409c0,3.707-0.31,7.576-0.926,11.609c-0.618,4.033-1.654,7.957-3.106,11.771
		c-1.455,3.815-3.398,7.431-5.832,10.846c-2.436,3.416-5.488,6.414-9.156,8.992c-3.67,2.58-8.011,4.633-13.025,6.159
		c-5.014,1.525-10.791,2.289-17.331,2.289c-1.09,0-2.381-0.055-3.87-0.164c-1.49-0.108-3.07-0.218-4.741-0.327
		c-1.672-0.108-3.343-0.218-5.014-0.327c-1.672-0.108-3.198-0.163-4.578-0.163H20.487z M64.339,34.944
		c-1.896,0-3.827,0.038-5.795,0.109c-1.969,0.073-3.464,0.182-4.484,0.327l-13.625,66.054c0.722,0.073,1.607,0.127,2.657,0.163
		c1.049,0.037,2.098,0.073,3.147,0.109c1.049,0.037,1.989,0.073,2.82,0.108c0.831,0.038,1.465,0.02,1.899-0.054
		c6.799,0.073,12.494-1.271,17.087-4.033c4.592-2.761,8.281-6.377,11.065-10.846s4.755-9.483,5.913-15.042
		c1.156-5.559,1.735-11.135,1.735-16.731c0-2.834-0.329-5.486-0.984-7.957c-0.657-2.47-1.824-4.595-3.5-6.376
		c-1.678-1.78-3.957-3.197-6.836-4.251C72.558,35.472,68.859,34.944,64.339,34.944z"/>
</g>
</svg>
