<?xml version="1.0" standalone="no"?>
<!DOCTYPE svg PUBLIC "-//W3C//DTD SVG 20010904//EN"
 "http://www.w3.org/TR/2001/REC-SVG-20010904/DTD/svg10.dtd">
<svg version="1.0" xmlns="http://www.w3.org/2000/svg"
 width="600.000000pt" height="600.000000pt" viewBox="0 0 600.000000 600.000000"
 preserveAspectRatio="xMidYMid meet">
<metadata>
Created by potrace 1.11, written by Peter Selinger 2001-2013
</metadata>
<g transform="translate(0.000000,600.000000) scale(0.100000,-0.100000)"
fill="#000000" stroke="none">
<path d="M2708 5976 c-1 -2 -75 -6 -163 -10 -88 -4 -178 -9 -200 -11 -188 -17
-482 -26 -855 -28 l-294 -2 -17 -65 c-10 -36 -18 -72 -18 -80 -1 -14 117 -70
147 -70 7 0 20 -4 30 -9 26 -15 143 -49 190 -57 31 -5 42 -11 42 -24 0 -10
-22 -122 -50 -249 -27 -127 -51 -241 -54 -253 -2 -13 -15 -77 -29 -143 -14
-66 -28 -132 -31 -147 -3 -16 -9 -40 -12 -55 -3 -16 -10 -48 -15 -73 -6 -25
-24 -110 -41 -190 -16 -80 -31 -152 -33 -160 -10 -43 -57 -268 -60 -285 -2
-11 -33 -159 -69 -330 -66 -308 -72 -339 -81 -383 -2 -13 -6 -31 -9 -40 -3 -9
-8 -32 -11 -49 -3 -18 -12 -61 -20 -95 -8 -35 -16 -74 -18 -88 -3 -14 -21
-101 -41 -195 -20 -93 -38 -179 -40 -190 -3 -11 -12 -56 -21 -100 -10 -44 -19
-91 -21 -105 -13 -80 -17 -84 -80 -97 -32 -7 -75 -16 -94 -19 -44 -7 -243 -68
-290 -88 -34 -14 -36 -18 -49 -91 -8 -41 -12 -77 -10 -79 2 -2 189 -6 414 -9
226 -3 421 -8 435 -10 14 -3 79 -8 145 -12 66 -3 136 -9 155 -11 19 -2 134 -6
255 -8 206 -4 220 -5 219 -23 -2 -27 -10 -71 -33 -175 -18 -81 -121 -569 -135
-638 -3 -14 -7 -36 -10 -50 -3 -14 -10 -47 -16 -75 -35 -172 -90 -430 -95
-445 -2 -8 -7 -31 -10 -50 -24 -148 -25 -151 -128 -169 -55 -10 -87 -17 -115
-25 -9 -3 -28 -7 -42 -10 -32 -5 -233 -71 -258 -85 -14 -7 -21 -30 -30 -88 -7
-43 -12 -82 -12 -88 0 -6 131 -10 373 -10 336 -1 531 -7 665 -20 26 -3 90 -7
142 -10 52 -4 129 -9 170 -12 222 -17 587 -2 791 32 13 2 41 6 61 9 158 24
436 106 608 179 533 228 901 581 1163 1114 112 229 208 527 251 780 46 267 61
447 60 718 0 208 -8 280 -50 446 -93 374 -307 637 -660 813 -95 47 -278 113
-375 135 l-56 13 5 57 c8 90 7 380 -1 451 -58 495 -304 817 -763 999 -195 77
-397 116 -659 127 -66 3 -125 7 -132 9 -6 2 -13 2 -15 1z m112 -300 c279 -31
501 -124 646 -272 166 -168 238 -403 235 -764 -1 -133 -7 -239 -12 -244 -2 -3
-67 -7 -145 -10 -77 -3 -165 -8 -195 -11 -30 -2 -94 -7 -144 -9 -49 -3 -133
-8 -185 -11 -167 -10 -357 -14 -686 -15 l-322 0 -17 -77 c-10 -43 -19 -83 -22
-89 -2 -7 6 -15 19 -19 13 -4 37 -13 53 -21 46 -21 263 -90 328 -104 31 -7 57
-16 57 -20 0 -8 -47 -239 -80 -390 -11 -52 -30 -140 -41 -195 -11 -55 -22
-107 -24 -115 -7 -28 -99 -468 -111 -530 -3 -14 -15 -72 -28 -130 -13 -58 -31
-144 -41 -192 -10 -47 -21 -92 -26 -99 -5 -9 -68 -12 -266 -11 -142 1 -283 4
-313 6 -30 3 -70 5 -88 5 -30 1 -32 3 -27 29 10 56 26 134 74 364 28 131 53
248 55 260 3 13 7 32 9 43 11 45 159 752 163 774 3 12 11 51 19 85 8 33 16 75
19 91 3 17 32 156 65 310 64 301 90 428 97 461 2 11 22 106 44 210 39 182 68
318 76 358 2 11 15 74 29 140 14 67 28 133 31 148 3 15 9 30 14 33 4 2 61 7
126 11 66 3 120 7 121 8 6 5 438 -2 493 -8z m806 -1605 l30 -1 -12 -72 c-51
-294 -117 -505 -227 -727 -138 -277 -324 -497 -549 -652 -75 -51 -203 -129
-213 -129 -2 0 10 62 26 138 16 75 31 146 33 157 3 11 12 54 21 95 9 41 19 86
21 100 3 14 27 131 55 260 28 129 64 300 80 380 16 80 38 186 49 235 11 50 21
101 24 115 9 54 19 80 30 81 6 0 20 2 31 5 11 2 92 7 180 10 88 4 161 7 162 8
2 1 214 -1 259 -3z m739 -188 c149 -90 272 -241 331 -405 15 -41 19 -54 28
-96 2 -9 9 -35 14 -57 19 -72 33 -218 34 -350 1 -115 -8 -346 -17 -415 -1 -14
-6 -56 -9 -93 -4 -37 -9 -78 -11 -89 -3 -12 -9 -58 -16 -102 -6 -44 -12 -83
-14 -86 -2 -4 -7 -29 -11 -56 -9 -73 -69 -307 -102 -404 -122 -355 -296 -640
-527 -861 -33 -32 -73 -68 -90 -81 -16 -12 -36 -28 -43 -35 -30 -29 -213 -144
-287 -181 -93 -47 -254 -104 -340 -122 -33 -7 -64 -13 -70 -15 -16 -3 -97 -16
-130 -20 -44 -6 -321 -19 -390 -18 -83 1 -454 15 -474 18 -27 4 -17 65 69 455
6 25 12 54 14 65 7 35 106 508 121 575 12 53 25 114 30 140 0 3 4 21 8 40 8
41 11 53 31 145 8 39 17 82 20 95 20 104 44 211 47 214 2 2 51 17 108 35 523
158 910 443 1181 869 151 238 260 504 326 793 l27 117 36 -17 c20 -9 68 -35
106 -58z"/>
</g>
</svg>
